/* XPM */
static char const * const pikloops_drag_xpm[] = {
"32 32 227 2",
"  	c None",
". 	c #808080",
"+ 	c #303030",
"@ 	c #000000",
"# 	c #A0A0A0",
"$ 	c #EFAE4F",
"% 	c #EEAD4E",
"& 	c #ECAC4E",
"* 	c #EAAA4D",
"= 	c #E9A94D",
"- 	c #E7A84C",
"; 	c #E5A74C",
"> 	c #585858",
", 	c #EDAC4E",
"' 	c #EBAB4D",
") 	c #E8A94C",
"! 	c #E6A74C",
"~ 	c #E5A64B",
"{ 	c #E3A54B",
"] 	c #E1A44A",
"^ 	c #DFA249",
"/ 	c #EDB15A",
"( 	c #F0CB96",
"_ 	c #F2E0C5",
": 	c #F3ECE2",
"< 	c #F3F2F1",
"[ 	c #F1F0EF",
"} 	c #EEE7DD",
"| 	c #EAD8BE",
"1 	c #E5C290",
"2 	c #DEA655",
"3 	c #DCA048",
"4 	c #DA9F48",
"5 	c #D89D47",
"6 	c #F1D2A5",
"7 	c #F6F5F4",
"8 	c #F6F6F6",
"9 	c #F4F4F4",
"0 	c #F2F2F2",
"a 	c #EFEFEF",
"b 	c #A3A3A3",
"c 	c #EDEDED",
"d 	c #ECECEC",
"e 	c #EAEAEA",
"f 	c #E7E6E5",
"g 	c #DFC39A",
"h 	c #D79C47",
"i 	c #D59B46",
"j 	c #D39A46",
"k 	c #ECB768",
"l 	c #F4E7D4",
"m 	c #F3F3F3",
"n 	c #F1F1F1",
"o 	c #F0F0F0",
"p 	c #8C8C8C",
"q 	c #EBEBEB",
"r 	c #E9E9E9",
"s 	c #E7E7E7",
"t 	c #E4E4E4",
"u 	c #DED3C2",
"v 	c #D4A35E",
"w 	c #D09744",
"x 	c #CE9644",
"y 	c #EBB568",
"z 	c #F5EEE4",
"A 	c #F5F5F5",
"B 	c #EEEEEE",
"C 	c #C00000",
"D 	c #E8E8E8",
"E 	c #E6E6E6",
"F 	c #E3E3E3",
"G 	c #E1E1E1",
"H 	c #DFDFDF",
"I 	c #DCD6CD",
"J 	c #CE9F5B",
"K 	c #CB9343",
"L 	c #C99242",
"M 	c #F2E5D3",
"N 	c #E5E5E5",
"O 	c #E2E2E2",
"P 	c #E0E0E0",
"Q 	c #DEDEDE",
"R 	c #DDDDDD",
"S 	c #DBDBDB",
"T 	c #D5CABA",
"U 	c #C79142",
"V 	c #C58F41",
"W 	c #E6A74B",
"X 	c #E5A74B",
"Y 	c #ECCEA3",
"Z 	c #DADADA",
"` 	c #D6D6D6",
" .	c #CCB38D",
"..	c #C28D40",
"+.	c #C08B3F",
"@.	c #E3A956",
"#.	c #DCDCDC",
"$.	c #D9D9D9",
"%.	c #D5D5D5",
"&.	c #D4D4D4",
"*.	c #D1D0CF",
"=.	c #BF8F49",
"-.	c #BD893E",
";.	c #E1A34A",
">.	c #E0A34A",
",.	c #E5C391",
"'.	c #D7D7D7",
").	c #D2D2D2",
"!.	c #D1D1D1",
"~.	c #CFCFCF",
"{.	c #C2A57B",
"].	c #B9863D",
"^.	c #B7853C",
"/.	c #DDA048",
"(.	c #DCA049",
"_.	c #E8D6BD",
":.	c #D8D8D8",
"<.	c #D3D3D3",
"[.	c #D0D0D0",
"}.	c #CECECE",
"|.	c #CCCCCC",
"1.	c #C5B6A0",
"2.	c #B6843C",
"3.	c #B4823B",
"4.	c #D99E47",
"5.	c #E8E2D8",
"6.	c #CDCDCD",
"7.	c #CBCBCB",
"8.	c #C9C9C9",
"9.	c #C5C0B8",
"0.	c #B2813B",
"a.	c #B0803A",
"b.	c #D69B46",
"c.	c #C4C3C2",
"d.	c #AF7E39",
"e.	c #AD7D39",
"f.	c #D29945",
"g.	c #D29845",
"h.	c #E4E3E2",
"i.	c #A5A5A5",
"j.	c #CACACA",
"k.	c #C7C7C7",
"l.	c #C5C5C5",
"m.	c #C4C4C4",
"n.	c #C1C0BF",
"o.	c #AB7C38",
"p.	c #A97B38",
"q.	c #CF9644",
"r.	c #DFD9D0",
"s.	c #C8C8C8",
"t.	c #C6C6C6",
"u.	c #C3C3C3",
"v.	c #C1C1C1",
"w.	c #BCB7B0",
"x.	c #A87937",
"y.	c #A67837",
"z.	c #D8C8B0",
"A.	c #C0C0C0",
"B.	c #BEBEBE",
"C.	c #B5A894",
"D.	c #A47736",
"E.	c #A27535",
"F.	c #C89142",
"G.	c #CFB084",
"H.	c #9E9E9E",
"I.	c #C2C2C2",
"J.	c #848484",
"K.	c #BDBDBD",
"L.	c #BBBBBB",
"M.	c #AC926E",
"N.	c #A07435",
"O.	c #9F7334",
"P.	c #C48E40",
"Q.	c #C3924B",
"R.	c #D7D6D5",
"S.	c #BFBFBF",
"T.	c #BCBCBC",
"U.	c #B7B6B5",
"V.	c #A0783D",
"W.	c #9D7134",
"X.	c #BF8B3F",
"Y.	c #BE8A3F",
"Z.	c #C9B08C",
"`.	c #B9B9B9",
" +	c #B7B7B7",
".+	c #AA9578",
"++	c #9B7033",
"@+	c #996F32",
"#+	c #BB873D",
"$+	c #CBC1B2",
"%+	c #B8B8B8",
"&+	c #B1A89C",
"*+	c #986D32",
"=+	c #B7843C",
"-+	c #B88E52",
";+	c #C9C3BC",
">+	c #BABABA",
",+	c #B3AFA8",
"'+	c #9C7847",
")+	c #966C31",
"!+	c #946B31",
"~+	c #B2813A",
"{+	c #B38A50",
"]+	c #C2B8AA",
"^+	c #B0A79B",
"/+	c #9B7846",
"(+	c #AA7B38",
"_+	c #B69F80",
":+	c #B6B5B4",
"<+	c #A69376",
"[+	c #A57B3F",
"}+	c #AD936F",
"|+	c #B2A593",
"1+	c #B6B2AB",
"2+	c #B3AEA8",
"3+	c #ADA18F",
"4+	c #A38C6A",
"5+	c #96703A",
"6+	c #A17435",
"7+	c #9D7234",
"8+	c #9C7133",
"9+	c #9A6F33",
"0+	c #986E32",
"a+	c #976D32",
"b+	c #956C31",
"c+	c #976D31",
"d+	c #956B31",
"                                                                ",
"                                                                ",
"                                                      .         ",
"      . +               @ @ @ @ @ @ @ @             . + .       ",
"    . + + #         @ @ $ $ % & * = - ; @ @       > + + + .     ",
"    + + + + # + @ @ $ $ $ , ' * ) ! ~ { ] ^ @ @ . + + + .       ",
"      # + + + @ $ $ $ / ( _ : < [ } | 1 2 3 4 5 @ + + >         ",
"        # + @ % % , 6 7 8 9 0 a b c d e f g h i j @ >           ",
"          @ , & k l 8 b m n o d p q r s b t u v w x @           ",
"        @ ' ' y z A m 0 b B c r C D E b F G H I J K L @         ",
"        @ = - M 9 0 n a c d e s C N F O P Q R S T U V @         ",
"      @ W X Y m b a B d e r s t C O P H R S Z b `  ...+.@       ",
"      @ { @.[ o B b q r D E t G C H Q #.Z $.b %.&.*.=.-.@       ",
"    @ ;.>.,.a c q e D E N F G Q C #.S $.'.` &.).!.~.{.].^.@     ",
"    @ /.(._.d e r s N t O P H S C Z :.` %.<.!.[.}.|.1.2.3.@     ",
"    @ 4.4.5.r s E t O G H R #.:.C '.%.<.).[.}.6.7.8.9.0.a.@     ",
"    @ b.i f b b b G P Q #.S S b C b ).!.~.6.|.p p p c.d.e.@     ",
"    @ f.g.h.F O P Q R S $.:.:.i.C i.~.}.|.j.8.k.l.m.n.o.p.@     ",
"    @ q.x r.G H R #.Z :.'.%.%.C i.i.6.7.8.s.t.m.u.v.w.x.y.@     ",
"    @ K K z.Q #.Z $.'.%.&.).p p j.j.j.s.t.l.u.v.A.B.C.D.E.@     ",
"    @ F.U G.S $.H.` &.<.!.p C |.j.j.l.l.m.I.A.J.K.L.M.N.O.@     ",
"      @ P.Q.R.H.%.<.!.[.}.C 7.8.k.t.v.v.v.S.K.T.J.U.V.W.@       ",
"      @ X.Y.Z.&.).[.~.6.7.j.s.t.l.u.v.A.B.T.L.`. +.+++@+@       ",
"        @ #+].$+~.6.|.p s.k.l.u.I.A.B.K.J.`.%+ +&+@+*+@         ",
"        @ =+2.-+;+7.p k.t.m.I.J.S.K.T.>+%+J. +,+'+)+!+@         ",
"          @ ~+a.{+]+t.m.u.v.S.J.T.>+`. + + +^+/+!+!+@           ",
"            @ e.o.(+_+n.A.B.K.J.`.%+ + +:+<+!+!+!+@             ",
"              @ x.y.D.[+}+|+1+U.:+2+3+4+5+!+!+!+@               ",
"                + @ 6+O.7+8+9+0+a+b+!+!+!+!+@ +                 ",
"                  @ @ @ 9+0+c+d+!+!+!+!+@ @                     ",
"                        @ @ @ @ @ @ @ @                         ",
"                                                                "};
