/* XPM */
static char * pikloops22_xpm[] = {
"22 22 277 2",
"  	c None",
". 	c #446FB1",
"+ 	c #406CAF",
"@ 	c #656565",
"# 	c #8FB0DC",
"$ 	c #A9C6E8",
"% 	c #B1CDED",
"& 	c #B9D3F0",
"* 	c #B4CFEE",
"= 	c #ADCBEC",
"- 	c #9FBEE5",
"; 	c #6F99D1",
"> 	c #5C5C5C",
", 	c #454545",
"' 	c #6A707A",
") 	c #89B0E1",
"! 	c #B6D1EF",
"~ 	c #B0CEEC",
"{ 	c #BFD8F2",
"] 	c #D4E5F7",
"^ 	c #C6DBF2",
"/ 	c #CFE1F5",
"( 	c #CCE0F5",
"_ 	c #B3CFEE",
": 	c #B3CFED",
"< 	c #A7C8EE",
"[ 	c #5487CB",
"} 	c #494949",
"| 	c #6A7079",
"1 	c #39619A",
"2 	c #95BBE8",
"3 	c #AACAEC",
"4 	c #B7D2EF",
"5 	c #DAE8F7",
"6 	c #E6EFF9",
"7 	c #EBF2FA",
"8 	c #DBE8F5",
"9 	c #E4EDF8",
"0 	c #E9F1FA",
"a 	c #E3EDF9",
"b 	c #C8DDF3",
"c 	c #ADCDEE",
"d 	c #A3C6ED",
"e 	c #6292D1",
"f 	c #8BB6E7",
"g 	c #A1C6EB",
"h 	c #D0E4F7",
"i 	c #D6E6F7",
"j 	c #D7E7F7",
"k 	c #ECF6FE",
"l 	c #EDF6FF",
"m 	c #EAF5FE",
"n 	c #EBF6FF",
"o 	c #ECF6FF",
"p 	c #E7F2FC",
"q 	c #D1E3F5",
"r 	c #C4D2EC",
"s 	c #ACC8EC",
"t 	c #9AC0EB",
"u 	c #558CD1",
"v 	c #74A5E0",
"w 	c #9AC1EA",
"x 	c #CCE2F7",
"y 	c #D7E8F9",
"z 	c #E4F2FE",
"A 	c #E5F3FF",
"B 	c #E6F3FF",
"C 	c #E7F4FF",
"D 	c #D3DFF2",
"E 	c #99A0D0",
"F 	c #CADAF1",
"G 	c #B1D2F2",
"H 	c #88B7EA",
"I 	c #3870BA",
"J 	c #8CB8E9",
"K 	c #AFCEEF",
"L 	c #CBE0F6",
"M 	c #E3F1FE",
"N 	c #E4F2FF",
"O 	c #E3F2FF",
"P 	c #E4F3FF",
"Q 	c #D9E6F5",
"R 	c #9DA3D2",
"S 	c #CEDAF0",
"T 	c #DAEBFA",
"U 	c #C5DCF4",
"V 	c #95BDEA",
"W 	c #629EE2",
"X 	c #6599D5",
"Y 	c #99BFE9",
"Z 	c #D0E4F8",
"` 	c #D2E4F8",
" .	c #E4F1FE",
"..	c #E5F2FF",
"+.	c #E5F1FC",
"@.	c #F0D2CD",
"#.	c #E8EAEF",
"$.	c #E3F1FB",
"%.	c #A1A7D5",
"&.	c #C2CCE8",
"*.	c #E6F4FE",
"=.	c #DCEDFC",
"-.	c #C6DEF5",
";.	c #B5D4F3",
">.	c #559AE3",
",.	c #6BA3E0",
"'.	c #B9D4F0",
").	c #D9E9FA",
"!.	c #E7F3FE",
"~.	c #E8F2F8",
"{.	c #FEA186",
"].	c #F2C6BC",
"^.	c #E6F5FD",
"/.	c #AEB6DC",
"(.	c #B9C0E1",
"_.	c #E6F3FD",
":.	c #E1F1FF",
"<.	c #DDEFFF",
"[.	c #D4E9FC",
"}.	c #C6DFF7",
"|.	c #70A9E6",
"1.	c #3477C5",
"2.	c #70A9E3",
"3.	c #D3E4F6",
"4.	c #E2EFFB",
"5.	c #EEF9FF",
"6.	c #F4D6D2",
"7.	c #F3A897",
"8.	c #B6BFDF",
"9.	c #AEB3D9",
"0.	c #EBF7FD",
"a.	c #D8E9F9",
"b.	c #97C1ED",
"c.	c #3E84D4",
"d.	c #3A6AAE",
"e.	c #75ADE4",
"f.	c #CCDEF2",
"g.	c #D7E6F6",
"h.	c #EFF7FE",
"i.	c #F1F8FF",
"j.	c #F2F9FF",
"k.	c #EFF6FD",
"l.	c #DAE1F1",
"m.	c #B4B7D9",
"n.	c #7EA7DD",
"o.	c #5F8BD8",
"p.	c #D5DBED",
"q.	c #EFF8FF",
"r.	c #EEF7FF",
"s.	c #EFF7FF",
"t.	c #E6F1FC",
"u.	c #D2E2F4",
"v.	c #A2C5ED",
"w.	c #458DDA",
"x.	c #6CA6E1",
"y.	c #DAE7F4",
"z.	c #F7FBFF",
"A.	c #F9FDFF",
"B.	c #D0D2E9",
"C.	c #8D8CC3",
"D.	c #9998CA",
"E.	c #AEAED5",
"F.	c #86A3DD",
"G.	c #BEA9BB",
"H.	c #F7F7F8",
"I.	c #F7FCFF",
"J.	c #F4F9FD",
"K.	c #E4EEF8",
"L.	c #ABCCEF",
"M.	c #4D91DA",
"N.	c #64A1DE",
"O.	c #D7E3F2",
"P.	c #EFF4FA",
"Q.	c #FCFEFF",
"R.	c #F3F4FA",
"S.	c #EEEFF7",
"T.	c #FAFBFD",
"U.	c #FEFFFF",
"V.	c #FBFAFC",
"W.	c #FEB9A7",
"X.	c #FDDCD2",
"Y.	c #FAFCFE",
"Z.	c #E8F0F8",
"`.	c #9FC5EE",
" +	c #5090D4",
".+	c #66A0DA",
"++	c #AFC8E5",
"@+	c #EEF3FA",
"#+	c #F8FAFD",
"$+	c #FEFEFF",
"%+	c #FFFFFF",
"&+	c #FFDFD6",
"*+	c #FFA186",
"=+	c #FFF9F7",
"-+	c #FCFDFE",
";+	c #F2F5FA",
">+	c #E2EBF7",
",+	c #86B8EB",
"'+	c #4F86C4",
")+	c #6B9ECE",
"!+	c #84AEDB",
"~+	c #DAE4F2",
"{+	c #E3EBF6",
"]+	c #FDFEFF",
"^+	c #FFFDFC",
"/+	c #FFAB96",
"(+	c #FFD6C9",
"_+	c #F4F8FC",
":+	c #DAE5F2",
"<+	c #C2D7F1",
"[+	c #7AB5ED",
"}+	c #83B7E5",
"|+	c #ACC5E4",
"1+	c #E9F0F8",
"2+	c #FFEDE9",
"3+	c #FFA48C",
"4+	c #FFF8F5",
"5+	c #FEFEFE",
"6+	c #EEF3F9",
"7+	c #E3ECF7",
"8+	c #90BDEB",
"9+	c #6DA7E2",
"0+	c #75A2CD",
"a+	c #85B4E0",
"b+	c #CDDBEE",
"c+	c #F7FAFD",
"d+	c #F9FBFE",
"e+	c #FFB29D",
"f+	c #FACDC2",
"g+	c #F0F5FA",
"h+	c #E8EFF8",
"i+	c #AFCEF0",
"j+	c #82BBEF",
"k+	c #8AB6DA",
"l+	c #89B3DD",
"m+	c #C6D7EC",
"n+	c #ECF2FB",
"o+	c #FCFDFF",
"p+	c #FAFBFF",
"q+	c #FDFDFF",
"r+	c #FBE6E0",
"s+	c #FBB5A0",
"t+	c #E6E8F0",
"u+	c #B3D0F2",
"v+	c #91C5F1",
"w+	c #608DBF",
"x+	c #8EB6D6",
"y+	c #95C0E4",
"z+	c #A4C1E3",
"A+	c #D2E0F2",
"B+	c #EAF1FB",
"C+	c #F6FAFE",
"D+	c #EDF4FD",
"E+	c #F1F7FE",
"F+	c #F1F6FD",
"G+	c #E3EBF7",
"H+	c #C9CFE3",
"I+	c #A6CBF0",
"J+	c #9ACDF4",
"K+	c #6994C2",
"L+	c #7A9BBF",
"M+	c #ACD0EA",
"N+	c #A5C9E8",
"O+	c #A3C1E5",
"P+	c #B3CAE9",
"Q+	c #B8CEEC",
"R+	c #BACFEE",
"S+	c #B2CDEE",
"T+	c #AACEF0",
"U+	c #AFDAF6",
"V+	c #9AC9EC",
"W+	c #A2BBD3",
"X+	c #AFC9E2",
"Y+	c #B1CBE7",
"Z+	c #AFCDE9",
"`+	c #A4C6E0",
" @	c #8EB2CD",
"                    . +                     ",
"    @         # $ % & * = - ;         >     ",
"  @ , '   ) ! ~ { ] ^ / ( _ : < [   } >     ",
"    | 1 2 3 4 5 6 7 8 9 0 a b c d e         ",
"      f g h i j k l m n o p q r s t u       ",
"    v w x y z z A B B B A C D E F G H I     ",
"    J K L M N O O O O O P Q R S T U V W     ",
"  X Y Z `  ...N +.@.#.A $.%.&.*.=.-.;.>.    ",
"  ,.'.).!.C C C ~.{.].^./.(._.:.<.[.}.|.1.  ",
"  2.3.4.o o o l 5.6.7.8.9.0.A A A z a.b.c.  ",
"d.e.f.g.h.i.j.k.l.m.n.o.p.q.r.r.s.t.u.v.w.  ",
"  x.y.0 z.A.B.C.D.E.F.G.H.I.I.I.I.J.K.L.M.  ",
"  N.O.P.Q.Q.R.S.T.U.V.W.X.Q.Q.Q.Q.Y.Z.`. +  ",
"  .+++@+#+$+%+%+%+%+%+&+*+=+%+%+-+;+>+,+'+  ",
"  )+!+~+{+]+%+%+%+%+%+^+/+(+%+%+_+:+<+[+    ",
"    }+|+1+Y.%+%+%+%+%+%+2+3+4+5+6+7+8+9+    ",
"    0+a+b+@+c+d+%+%+%+%+%+e+f+g+h+i+j+      ",
"      k+l+m+9 n+o+$+p+q+]+r+s+t+u+v+w+      ",
"        x+y+z+A+B+C+D+E+F+G+H+I+J+K+        ",
"          L+M+N+O+P+Q+R+S+T+U+V+            ",
"                W+X+Y+Z+`+ @                ",
"                                            "};
